<?xml version="1.0" standalone="no"?>
<!DOCTYPE svg PUBLIC "-//W3C//DTD SVG 20010904//EN"
 "http://www.w3.org/TR/2001/REC-SVG-20010904/DTD/svg10.dtd">
<svg version="1.0" xmlns="http://www.w3.org/2000/svg"
 width="102.000000pt" height="60.000000pt" viewBox="0 0 102.000000 60.000000"
 preserveAspectRatio="xMidYMid meet">
<metadata>
Created by potrace 1.10, written by Peter Selinger 2001-2011
</metadata>
<g transform="translate(0.000000,60.000000) scale(0.100000,-0.100000)"
fill="#2f4f4f" stroke="none">
<path d="M378 446 c-10 -7 -15 -16 -12 -19 4 -3 0 -19 -7 -36 -15 -33 -8 -32
-121 -15 -30 5 -38 2 -38 -9 0 -12 -8 -14 -35 -10 -28 4 -35 2 -35 -11 0 -12
-10 -16 -39 -16 -58 0 -70 -22 -35 -63 16 -19 34 -42 39 -51 9 -16 41 -18 385
-19 l375 -2 55 31 c57 32 73 61 50 90 -7 7 -28 14 -46 14 -25 0 -34 4 -34 16
0 13 -7 15 -35 11 -26 -4 -35 -2 -35 8 0 12 -12 13 -60 8 -38 -4 -60 -2 -60 4
0 6 -11 13 -25 15 -13 3 -22 1 -19 -3 3 -5 -9 -9 -26 -9 -21 0 -29 4 -24 12 4
6 3 8 -4 4 -6 -3 -13 -2 -17 4 -10 15 -45 12 -52 -5 -5 -13 -8 -13 -20 5 -8
11 -22 20 -31 21 -12 0 -13 2 -4 6 9 3 4 10 -13 19 -34 17 -55 17 -77 0z m66
-21 c3 -8 2 -15 -2 -15 -4 0 -8 -17 -9 -37 0 -21 1 -28 4 -16 5 26 28 47 43
38 5 -3 10 -24 10 -46 0 -32 3 -39 20 -39 16 0 20 7 20 35 0 41 25 59 45 32
13 -19 85 -24 85 -7 0 6 5 10 10 10 6 0 10 -13 10 -30 0 -16 4 -30 10 -30 5 0
7 7 4 15 -5 12 2 15 31 15 20 0 45 5 56 10 11 6 19 7 19 1 0 -5 -14 -14 -31
-20 -19 -6 -28 -15 -24 -22 5 -7 10 -7 14 -1 3 5 22 12 41 14 19 3 43 8 53 13
9 4 17 3 17 -2 0 -5 -12 -14 -27 -20 -25 -10 -20 -11 40 -12 59 -1 67 -3 67
-20 0 -22 -35 -51 -61 -51 -10 0 -19 -6 -22 -12 -3 -10 -86 -13 -376 -11
l-373 2 -33 38 c-19 21 -34 41 -35 46 0 4 33 7 73 8 62 1 68 3 45 12 -16 6
-28 15 -28 20 0 5 8 6 17 1 10 -4 35 -9 56 -12 20 -2 37 -8 37 -13 0 -5 5 -9
10 -9 22 0 8 22 -20 31 -16 6 -30 15 -30 21 0 5 6 6 13 1 6 -4 30 -10 52 -13
31 -4 39 -9 37 -23 -4 -23 10 -21 26 4 10 15 20 20 39 16 25 -5 25 -3 20 39
-2 24 -2 46 1 49 11 11 40 5 46 -10z m-64 -45 c0 -5 -5 -10 -11 -10 -5 0 -7 5
-4 10 3 6 8 10 11 10 2 0 4 -4 4 -10z"/>
<path d="M158 183 c12 -2 32 -2 45 0 12 2 2 4 -23 4 -25 0 -35 -2 -22 -4z"/>
</g>
</svg>
